<mxfile host="app.diagrams.net" modified="2024-05-03T09:03:24.683Z" agent="Mozilla/5.0 (Windows NT 10.0; Win64; x64) AppleWebKit/537.36 (KHTML, like Gecko) Chrome/124.0.0.0 Safari/537.36" etag="YTaYVzxEau9MK7oA2uZJ" version="24.3.1" type="github">
  <diagram name="Page-1" id="90a13364-a465-7bf4-72fc-28e22215d7a0">
    <mxGraphModel dx="880" dy="468" grid="1" gridSize="10" guides="1" tooltips="1" connect="1" arrows="1" fold="1" page="1" pageScale="1.5" pageWidth="1169" pageHeight="826" background="none" math="0" shadow="0">
      <root>
        <mxCell id="0" style=";html=1;" />
        <mxCell id="1" style=";html=1;" parent="0" />
        <mxCell id="3a17f1ce550125da-13" style="edgeStyle=elbowEdgeStyle;rounded=0;html=1;startArrow=none;startFill=0;jettySize=auto;orthogonalLoop=1;fontSize=18;elbow=vertical;" parent="1" source="3a17f1ce550125da-2" target="3a17f1ce550125da-4" edge="1">
          <mxGeometry relative="1" as="geometry" />
        </mxCell>
        <mxCell id="3a17f1ce550125da-2" value="&lt;b&gt;Automation Orchestration Engine:&lt;/b&gt;&lt;div&gt;&lt;b&gt;commercial or open source&lt;/b&gt;&lt;/div&gt;" style="whiteSpace=wrap;html=1;shadow=1;fontSize=18;fillColor=#ffe6cc;strokeColor=#d79b00;" parent="1" vertex="1">
          <mxGeometry x="787" y="454" width="170" height="280" as="geometry" />
        </mxCell>
        <mxCell id="3a17f1ce550125da-4" value="&lt;div&gt;&lt;b&gt;&lt;br&gt;&lt;/b&gt;&lt;/div&gt;&lt;b&gt;Pre-/Post Change&lt;/b&gt;&lt;div&gt;&lt;b&gt;Validation Engine&lt;/b&gt;&lt;/div&gt;" style="whiteSpace=wrap;html=1;shadow=1;fontSize=18;fillColor=#ffe6cc;strokeColor=#d79b00;" parent="1" vertex="1">
          <mxGeometry x="1070" y="481" width="183" height="76" as="geometry" />
        </mxCell>
        <mxCell id="3a17f1ce550125da-8" value="&lt;b&gt;Source of Truth Database&lt;/b&gt;" style="whiteSpace=wrap;html=1;shadow=1;fontSize=18;fillColor=#ffe6cc;strokeColor=#d79b00;" parent="1" vertex="1">
          <mxGeometry x="540" y="460" width="177" height="120" as="geometry" />
        </mxCell>
        <mxCell id="3a17f1ce550125da-9" value="&lt;b&gt;Git: Templates, Scripts, configs&lt;/b&gt;" style="whiteSpace=wrap;html=1;shadow=1;fontSize=18;fillColor=#ffe6cc;strokeColor=#d79b00;" parent="1" vertex="1">
          <mxGeometry x="540" y="630" width="180" height="96" as="geometry" />
        </mxCell>
        <mxCell id="RhrCV95YW1IuNyOGolH8-2" value="&lt;div&gt;&lt;b&gt;&lt;font style=&quot;font-size: 18px;&quot;&gt;&lt;br&gt;&lt;/font&gt;&lt;/b&gt;&lt;/div&gt;&lt;b&gt;&lt;font style=&quot;font-size: 18px;&quot;&gt;UI&lt;/font&gt;&lt;/b&gt;" style="rounded=0;whiteSpace=wrap;html=1;fillColor=#ffe6cc;strokeColor=#d79b00;" vertex="1" parent="1">
          <mxGeometry x="630" y="330" width="90" height="60" as="geometry" />
        </mxCell>
        <mxCell id="RhrCV95YW1IuNyOGolH8-3" value="&lt;div&gt;&lt;b&gt;&lt;font style=&quot;font-size: 15px;&quot;&gt;&lt;br&gt;&lt;/font&gt;&lt;/b&gt;&lt;/div&gt;&lt;b&gt;&lt;font style=&quot;font-size: 15px;&quot;&gt;WorkFlows&lt;/font&gt;&lt;/b&gt;" style="rounded=0;whiteSpace=wrap;html=1;fillColor=#ffe6cc;strokeColor=#d79b00;" vertex="1" parent="1">
          <mxGeometry x="910" y="330" width="100" height="60" as="geometry" />
        </mxCell>
        <mxCell id="RhrCV95YW1IuNyOGolH8-4" value="&lt;div&gt;&lt;b&gt;&lt;font style=&quot;font-size: 15px;&quot;&gt;&lt;br&gt;&lt;/font&gt;&lt;/b&gt;&lt;/div&gt;&lt;b&gt;&lt;font style=&quot;font-size: 15px;&quot;&gt;Chatbots&lt;/font&gt;&lt;/b&gt;" style="rounded=0;whiteSpace=wrap;html=1;fillColor=#ffe6cc;strokeColor=#d79b00;" vertex="1" parent="1">
          <mxGeometry x="1050" y="330" width="100" height="60" as="geometry" />
        </mxCell>
        <mxCell id="RhrCV95YW1IuNyOGolH8-6" value="&lt;font style=&quot;font-size: 15px;&quot;&gt;&lt;b&gt;TSDN AND RDBMS&lt;/b&gt;&lt;/font&gt;" style="rounded=0;whiteSpace=wrap;html=1;fillColor=#ffe6cc;strokeColor=#d79b00;" vertex="1" parent="1">
          <mxGeometry x="1083" y="654" width="170" height="80" as="geometry" />
        </mxCell>
        <mxCell id="RhrCV95YW1IuNyOGolH8-7" value="" style="endArrow=classic;startArrow=classic;html=1;rounded=0;exitX=0;exitY=0.5;exitDx=0;exitDy=0;" edge="1" parent="1" source="RhrCV95YW1IuNyOGolH8-6">
          <mxGeometry width="50" height="50" relative="1" as="geometry">
            <mxPoint x="890" y="670" as="sourcePoint" />
            <mxPoint x="960" y="620" as="targetPoint" />
            <Array as="points">
              <mxPoint x="1010" y="694" />
              <mxPoint x="1010" y="620" />
            </Array>
          </mxGeometry>
        </mxCell>
        <mxCell id="RhrCV95YW1IuNyOGolH8-8" value="&lt;b&gt;&lt;font style=&quot;font-size: 18px;&quot;&gt;Model-Base Abstraction Layer&lt;/font&gt;&lt;/b&gt;" style="rounded=0;whiteSpace=wrap;html=1;fillColor=#ffe6cc;strokeColor=#d79b00;" vertex="1" parent="1">
          <mxGeometry x="780" y="850" width="480" height="90" as="geometry" />
        </mxCell>
        <mxCell id="RhrCV95YW1IuNyOGolH8-10" value="" style="endArrow=classic;startArrow=classic;html=1;rounded=0;exitX=0.25;exitY=0;exitDx=0;exitDy=0;" edge="1" parent="1" source="RhrCV95YW1IuNyOGolH8-8">
          <mxGeometry width="50" height="50" relative="1" as="geometry">
            <mxPoint x="900" y="800" as="sourcePoint" />
            <mxPoint x="902" y="730" as="targetPoint" />
          </mxGeometry>
        </mxCell>
        <mxCell id="RhrCV95YW1IuNyOGolH8-11" value="" style="endArrow=classic;startArrow=classic;html=1;rounded=0;exitX=0.815;exitY=-0.044;exitDx=0;exitDy=0;exitPerimeter=0;" edge="1" parent="1" source="RhrCV95YW1IuNyOGolH8-8">
          <mxGeometry width="50" height="50" relative="1" as="geometry">
            <mxPoint x="1120" y="784" as="sourcePoint" />
            <mxPoint x="1170" y="734" as="targetPoint" />
          </mxGeometry>
        </mxCell>
        <mxCell id="RhrCV95YW1IuNyOGolH8-12" value="" style="endArrow=classic;startArrow=classic;html=1;rounded=0;" edge="1" parent="1">
          <mxGeometry width="50" height="50" relative="1" as="geometry">
            <mxPoint x="720" y="520" as="sourcePoint" />
            <mxPoint x="780" y="520" as="targetPoint" />
          </mxGeometry>
        </mxCell>
        <mxCell id="RhrCV95YW1IuNyOGolH8-13" value="" style="endArrow=classic;startArrow=classic;html=1;rounded=0;exitX=1;exitY=0.5;exitDx=0;exitDy=0;" edge="1" parent="1" source="3a17f1ce550125da-9">
          <mxGeometry width="50" height="50" relative="1" as="geometry">
            <mxPoint x="744.5" y="660" as="sourcePoint" />
            <mxPoint x="794.5" y="610" as="targetPoint" />
            <Array as="points">
              <mxPoint x="760" y="678" />
              <mxPoint x="760" y="610" />
            </Array>
          </mxGeometry>
        </mxCell>
        <mxCell id="RhrCV95YW1IuNyOGolH8-14" value="&lt;b&gt;&lt;font style=&quot;font-size: 15px;&quot;&gt;Virtual Network Testing&lt;/font&gt;&lt;/b&gt;" style="rounded=0;whiteSpace=wrap;html=1;fillColor=#ffe6cc;strokeColor=#d79b00;" vertex="1" parent="1">
          <mxGeometry x="540" y="790" width="180" height="80" as="geometry" />
        </mxCell>
        <mxCell id="RhrCV95YW1IuNyOGolH8-15" value="" style="endArrow=classic;startArrow=classic;html=1;rounded=0;entryX=-0.006;entryY=0.875;entryDx=0;entryDy=0;entryPerimeter=0;exitX=1;exitY=0.25;exitDx=0;exitDy=0;" edge="1" parent="1" source="RhrCV95YW1IuNyOGolH8-14" target="3a17f1ce550125da-2">
          <mxGeometry width="50" height="50" relative="1" as="geometry">
            <mxPoint x="730" y="810" as="sourcePoint" />
            <mxPoint x="780" y="760" as="targetPoint" />
            <Array as="points">
              <mxPoint x="750" y="810" />
              <mxPoint x="750" y="699" />
            </Array>
          </mxGeometry>
        </mxCell>
        <mxCell id="RhrCV95YW1IuNyOGolH8-16" value="&lt;b&gt;&lt;font style=&quot;font-size: 15px;&quot;&gt;Virtual network&amp;nbsp;&lt;/font&gt;&lt;/b&gt;" style="ellipse;shape=cloud;whiteSpace=wrap;html=1;fillColor=#dae8fc;strokeColor=#6c8ebf;" vertex="1" parent="1">
          <mxGeometry x="520" y="990" width="170" height="100" as="geometry" />
        </mxCell>
        <mxCell id="RhrCV95YW1IuNyOGolH8-17" value="&lt;div&gt;&lt;b&gt;&lt;font style=&quot;font-size: 15px;&quot;&gt;&lt;br&gt;&lt;/font&gt;&lt;/b&gt;&lt;/div&gt;&lt;b&gt;&lt;font style=&quot;font-size: 15px;&quot;&gt;Ticketing&lt;/font&gt;&lt;/b&gt;" style="rounded=0;whiteSpace=wrap;html=1;fillColor=#ffe6cc;strokeColor=#d79b00;" vertex="1" parent="1">
          <mxGeometry x="757" y="330" width="93" height="60" as="geometry" />
        </mxCell>
        <mxCell id="RhrCV95YW1IuNyOGolH8-19" value="" style="shape=flexArrow;endArrow=classic;startArrow=classic;html=1;rounded=0;exitX=0.571;exitY=0.011;exitDx=0;exitDy=0;exitPerimeter=0;" edge="1" parent="1" source="3a17f1ce550125da-2">
          <mxGeometry width="100" height="100" relative="1" as="geometry">
            <mxPoint x="822" y="454" as="sourcePoint" />
            <mxPoint x="884" y="370" as="targetPoint" />
          </mxGeometry>
        </mxCell>
        <mxCell id="RhrCV95YW1IuNyOGolH8-20" value="" style="endArrow=classic;startArrow=classic;html=1;rounded=0;entryX=0.45;entryY=0.988;entryDx=0;entryDy=0;entryPerimeter=0;exitX=0.576;exitY=0.12;exitDx=0;exitDy=0;exitPerimeter=0;" edge="1" parent="1" source="RhrCV95YW1IuNyOGolH8-16" target="RhrCV95YW1IuNyOGolH8-14">
          <mxGeometry width="50" height="50" relative="1" as="geometry">
            <mxPoint x="610" y="960" as="sourcePoint" />
            <mxPoint x="660" y="910" as="targetPoint" />
          </mxGeometry>
        </mxCell>
        <mxCell id="RhrCV95YW1IuNyOGolH8-21" value="" style="endArrow=classic;startArrow=classic;html=1;rounded=0;entryX=0.433;entryY=1;entryDx=0;entryDy=0;entryPerimeter=0;" edge="1" parent="1" target="RhrCV95YW1IuNyOGolH8-8">
          <mxGeometry width="50" height="50" relative="1" as="geometry">
            <mxPoint x="990" y="1040" as="sourcePoint" />
            <mxPoint x="940" y="960" as="targetPoint" />
          </mxGeometry>
        </mxCell>
        <mxCell id="RhrCV95YW1IuNyOGolH8-22" value="" style="endArrow=classic;startArrow=classic;html=1;rounded=0;entryX=0.544;entryY=1.011;entryDx=0;entryDy=0;entryPerimeter=0;" edge="1" parent="1" target="RhrCV95YW1IuNyOGolH8-8">
          <mxGeometry width="50" height="50" relative="1" as="geometry">
            <mxPoint x="1041" y="1040" as="sourcePoint" />
            <mxPoint x="970" y="960" as="targetPoint" />
          </mxGeometry>
        </mxCell>
        <mxCell id="RhrCV95YW1IuNyOGolH8-23" value="" style="endArrow=classic;startArrow=classic;html=1;rounded=0;entryX=0.65;entryY=1;entryDx=0;entryDy=0;entryPerimeter=0;" edge="1" parent="1" target="RhrCV95YW1IuNyOGolH8-8">
          <mxGeometry width="50" height="50" relative="1" as="geometry">
            <mxPoint x="1092" y="1040" as="sourcePoint" />
            <mxPoint x="1100" y="950" as="targetPoint" />
          </mxGeometry>
        </mxCell>
        <mxCell id="RhrCV95YW1IuNyOGolH8-24" value="" style="endArrow=classic;startArrow=classic;html=1;rounded=0;entryX=0.323;entryY=1;entryDx=0;entryDy=0;entryPerimeter=0;" edge="1" parent="1" target="RhrCV95YW1IuNyOGolH8-8">
          <mxGeometry width="50" height="50" relative="1" as="geometry">
            <mxPoint x="935" y="1040" as="sourcePoint" />
            <mxPoint x="940" y="960" as="targetPoint" />
          </mxGeometry>
        </mxCell>
        <mxCell id="RhrCV95YW1IuNyOGolH8-25" value="&lt;font color=&quot;#696363&quot; style=&quot;font-size: 13px;&quot;&gt;&lt;b style=&quot;&quot;&gt;CLI&lt;/b&gt;&lt;/font&gt;&lt;div style=&quot;font-size: 13px;&quot;&gt;&lt;font color=&quot;#696363&quot; style=&quot;font-size: 13px;&quot;&gt;&lt;b&gt;REST&lt;/b&gt;&lt;/font&gt;&lt;/div&gt;&lt;div style=&quot;font-size: 13px;&quot;&gt;&lt;font color=&quot;#696363&quot; style=&quot;font-size: 13px;&quot;&gt;&lt;b&gt;SNMP&lt;/b&gt;&lt;/font&gt;&lt;/div&gt;&lt;div style=&quot;font-size: 13px;&quot;&gt;&lt;font color=&quot;#696363&quot; style=&quot;font-size: 13px;&quot;&gt;&lt;b style=&quot;&quot;&gt;NETCONFIG&lt;/b&gt;&lt;/font&gt;&lt;/div&gt;" style="text;html=1;align=center;verticalAlign=middle;resizable=0;points=[];autosize=1;" vertex="1" parent="1">
          <mxGeometry x="1120" y="953" width="100" height="80" as="geometry" />
        </mxCell>
        <mxCell id="RhrCV95YW1IuNyOGolH8-29" value="4" style="ellipse;whiteSpace=wrap;html=1;aspect=fixed;fillColor=#e51400;fontColor=#ffffff;strokeColor=#B20000;" vertex="1" parent="1">
          <mxGeometry x="1150" y="660" width="20" height="20" as="geometry" />
        </mxCell>
        <mxCell id="RhrCV95YW1IuNyOGolH8-30" value="1" style="ellipse;whiteSpace=wrap;html=1;aspect=fixed;fillColor=#008a00;fontColor=#ffffff;strokeColor=#005700;" vertex="1" parent="1">
          <mxGeometry x="665" y="330" width="20" height="20" as="geometry" />
        </mxCell>
        <mxCell id="RhrCV95YW1IuNyOGolH8-31" value="2" style="ellipse;whiteSpace=wrap;html=1;aspect=fixed;fillColor=#1ba1e2;fontColor=#ffffff;strokeColor=#006EAF;" vertex="1" parent="1">
          <mxGeometry x="610" y="461" width="20" height="20" as="geometry" />
        </mxCell>
        <mxCell id="RhrCV95YW1IuNyOGolH8-32" value="3" style="ellipse;whiteSpace=wrap;html=1;aspect=fixed;fillColor=#76608a;fontColor=#ffffff;strokeColor=#432D57;" vertex="1" parent="1">
          <mxGeometry x="1090" y="330" width="20" height="20" as="geometry" />
        </mxCell>
        <mxCell id="RhrCV95YW1IuNyOGolH8-38" value="5" style="ellipse;whiteSpace=wrap;html=1;aspect=fixed;fillColor=#a0522d;fontColor=#ffffff;strokeColor=#6D1F00;" vertex="1" parent="1">
          <mxGeometry x="1150" y="481" width="20" height="20" as="geometry" />
        </mxCell>
        <mxCell id="RhrCV95YW1IuNyOGolH8-39" value="1" style="ellipse;whiteSpace=wrap;html=1;aspect=fixed;fillColor=#008a00;fontColor=#ffffff;strokeColor=#005700;" vertex="1" parent="1">
          <mxGeometry x="862" y="470" width="20" height="20" as="geometry" />
        </mxCell>
        <mxCell id="RhrCV95YW1IuNyOGolH8-40" value="1" style="ellipse;whiteSpace=wrap;html=1;aspect=fixed;fillColor=#008a00;fontColor=#ffffff;strokeColor=#005700;" vertex="1" parent="1">
          <mxGeometry x="990" y="850" width="20" height="20" as="geometry" />
        </mxCell>
        <mxCell id="RhrCV95YW1IuNyOGolH8-41" value="2" style="ellipse;whiteSpace=wrap;html=1;aspect=fixed;fillColor=#1ba1e2;fontColor=#ffffff;strokeColor=#006EAF;" vertex="1" parent="1">
          <mxGeometry x="793.5" y="330" width="20" height="20" as="geometry" />
        </mxCell>
        <mxCell id="RhrCV95YW1IuNyOGolH8-46" value="3" style="ellipse;whiteSpace=wrap;html=1;aspect=fixed;fillColor=#76608a;fontColor=#ffffff;strokeColor=#432D57;" vertex="1" parent="1">
          <mxGeometry x="950" y="330" width="20" height="20" as="geometry" />
        </mxCell>
        <mxCell id="RhrCV95YW1IuNyOGolH8-47" value="3" style="ellipse;whiteSpace=wrap;html=1;aspect=fixed;fillColor=#76608a;fontColor=#ffffff;strokeColor=#432D57;" vertex="1" parent="1">
          <mxGeometry x="618.5" y="630" width="20" height="20" as="geometry" />
        </mxCell>
        <mxCell id="RhrCV95YW1IuNyOGolH8-49" value="5" style="ellipse;whiteSpace=wrap;html=1;aspect=fixed;fillColor=#a0522d;fontColor=#ffffff;strokeColor=#6D1F00;" vertex="1" parent="1">
          <mxGeometry x="610" y="790" width="20" height="20" as="geometry" />
        </mxCell>
        <mxCell id="RhrCV95YW1IuNyOGolH8-50" value="&lt;b&gt;&lt;font color=&quot;#817e7e&quot; style=&quot;font-size: 13px;&quot;&gt;Action Triggers&lt;/font&gt;&lt;/b&gt;" style="text;html=1;align=center;verticalAlign=middle;resizable=0;points=[];autosize=1;strokeColor=none;fillColor=none;" vertex="1" parent="1">
          <mxGeometry x="970" y="718" width="120" height="30" as="geometry" />
        </mxCell>
        <mxCell id="RhrCV95YW1IuNyOGolH8-51" value="&lt;b&gt;&lt;font color=&quot;#6f6767&quot; style=&quot;font-size: 14px;&quot;&gt;Telemenry&lt;/font&gt;&lt;/b&gt;" style="text;html=1;align=center;verticalAlign=middle;resizable=0;points=[];autosize=1;strokeColor=none;fillColor=none;" vertex="1" parent="1">
          <mxGeometry x="1070" y="780" width="90" height="30" as="geometry" />
        </mxCell>
        <mxCell id="RhrCV95YW1IuNyOGolH8-52" value="&lt;b&gt;&lt;font color=&quot;#5b5252&quot; style=&quot;font-size: 17px;&quot;&gt;PROUCTION NETWORK&lt;/font&gt;&lt;/b&gt;" style="text;html=1;align=center;verticalAlign=middle;resizable=0;points=[];autosize=1;strokeColor=none;fillColor=none;" vertex="1" parent="1">
          <mxGeometry x="900" y="1060" width="220" height="30" as="geometry" />
        </mxCell>
        <mxCell id="RhrCV95YW1IuNyOGolH8-53" value="&lt;b&gt;&lt;font style=&quot;font-size: 18px;&quot; color=&quot;#4f1212&quot;&gt;NETWORK AUTOMATION ARCHITECTURE DIAGRAM&lt;/font&gt;&lt;/b&gt;" style="text;html=1;align=center;verticalAlign=middle;resizable=0;points=[];autosize=1;strokeColor=none;fillColor=none;" vertex="1" parent="1">
          <mxGeometry x="650" y="220" width="480" height="40" as="geometry" />
        </mxCell>
      </root>
    </mxGraphModel>
  </diagram>
</mxfile>
